<?xml version="1.0" encoding="us-ascii" standalone="no"?><svg xmlns="http://www.w3.org/2000/svg" xmlns:xlink="http://www.w3.org/1999/xlink" contentStyleType="text/css" height="720.7292px" preserveAspectRatio="none" style="width:388px;height:720px;background:#FFFFFF;" version="1.1" viewBox="0 0 388 720" width="388.4375px" zoomAndPan="magnify"><defs/><g><!--class Account--><g id="elem_Account"><rect codeLine="13" fill="#FFFFFF" height="105.1324" id="Account" rx="4.5833" ry="4.5833" style="stroke:#2688D4;stroke-width:0.5729166666666666;" width="107.7083" x="31.5104" y="8.0208"/><ellipse cx="50.6458" cy="27.8346" fill="#ADD1B2" rx="11.4583" ry="11.4583" style="stroke:#181818;stroke-width:1.1458333333333333;"/><path d="M52.7473,32.7021 Q52.2773,32.9438 51.7603,33.0647 Q51.2434,33.1855 50.6727,33.1855 Q48.6451,33.1855 47.5776,31.8495 Q46.5101,30.5134 46.5101,27.989 Q46.5101,25.4579 47.5776,24.1218 Q48.6451,22.7857 50.6727,22.7857 Q51.2434,22.7857 51.767,22.9066 Q52.2907,23.0274 52.7473,23.2691 L52.7473,25.4713 Q52.237,25.0013 51.757,24.7831 Q51.2769,24.5649 50.7667,24.5649 Q49.679,24.5649 49.1251,25.4277 Q48.5712,26.2904 48.5712,27.989 Q48.5712,29.6809 49.1251,30.5436 Q49.679,31.4064 50.7667,31.4064 Q51.2769,31.4064 51.757,31.1882 Q52.237,30.97 52.7473,30.5 Z " fill="#000000"/><text fill="#000000" font-family="Verdana" font-size="13.75" lengthAdjust="spacing" textLength="55" x="71.9583" y="33.303">Account</text><line style="stroke:#2688D4;stroke-width:0.5729166666666666;" x1="32.6563" x2="138.0729" y1="47.6483" y2="47.6483"/><text fill="#000000" font-family="Verdana" font-size="13.75" lengthAdjust="spacing" textLength="66.4583" x="44.1146" y="71.7847">Integer id</text><text fill="#000000" font-family="Verdana" font-size="13.75" lengthAdjust="spacing" textLength="82.5" x="44.1146" y="99.9538">String email</text></g><!--class Wallet--><g id="elem_Wallet"><rect codeLine="18" fill="#FFFFFF" height="105.1324" id="Wallet" rx="4.5833" ry="4.5833" style="stroke:#2688D4;stroke-width:0.5729166666666666;" width="136.3542" x="17.1875" y="251.7969"/><ellipse cx="54.8854" cy="271.6106" fill="#ADD1B2" rx="11.4583" ry="11.4583" style="stroke:#181818;stroke-width:1.1458333333333333;"/><path d="M56.9869,276.4782 Q56.5169,276.7199 55.9999,276.8407 Q55.483,276.9616 54.9123,276.9616 Q52.8847,276.9616 51.8172,275.6255 Q50.7497,274.2894 50.7497,271.765 Q50.7497,269.2339 51.8172,267.8978 Q52.8847,266.5618 54.9123,266.5618 Q55.483,266.5618 56.0066,266.6826 Q56.5303,266.8035 56.9869,267.0452 L56.9869,269.2473 Q56.4766,268.7774 55.9966,268.5592 Q55.5165,268.341 55.0063,268.341 Q53.9186,268.341 53.3647,269.2037 Q52.8108,270.0664 52.8108,271.765 Q52.8108,273.4569 53.3647,274.3197 Q53.9186,275.1824 55.0063,275.1824 Q55.5165,275.1824 55.9966,274.9642 Q56.4766,274.746 56.9869,274.276 Z " fill="#000000"/><text fill="#000000" font-family="Verdana" font-size="13.75" lengthAdjust="spacing" textLength="42.3958" x="80.3229" y="277.0791">Wallet</text><line style="stroke:#2688D4;stroke-width:0.5729166666666666;" x1="18.3333" x2="152.3958" y1="291.4244" y2="291.4244"/><text fill="#000000" font-family="Verdana" font-size="13.75" lengthAdjust="spacing" textLength="66.4583" x="29.7917" y="315.5607">Integer id</text><text fill="#000000" font-family="Verdana" font-size="13.75" lengthAdjust="spacing" textLength="111.1458" x="29.7917" y="343.7299">Number balance</text></g><!--class Transaction--><g id="elem_Transaction"><rect codeLine="23" fill="#FFFFFF" height="217.809" id="Transaction" rx="4.5833" ry="4.5833" style="stroke:#2688D4;stroke-width:0.5729166666666666;" width="154.6875" x="8.0208" y="495.5729"/><ellipse cx="37.4688" cy="515.3867" fill="#ADD1B2" rx="11.4583" ry="11.4583" style="stroke:#181818;stroke-width:1.1458333333333333;"/><path d="M39.5702,520.2542 Q39.1002,520.4959 38.5833,520.6168 Q38.0663,520.7376 37.4956,520.7376 Q35.468,520.7376 34.4005,519.4016 Q33.333,518.0655 33.333,515.5411 Q33.333,513.0099 34.4005,511.6739 Q35.468,510.3378 37.4956,510.3378 Q38.0663,510.3378 38.59,510.4587 Q39.1136,510.5795 39.5702,510.8212 L39.5702,513.0234 Q39.0599,512.5534 38.5799,512.3352 Q38.0999,512.117 37.5896,512.117 Q36.502,512.117 35.9481,512.9797 Q35.3942,513.8425 35.3942,515.5411 Q35.3942,517.233 35.9481,518.0957 Q36.502,518.9584 37.5896,518.9584 Q38.0999,518.9584 38.5799,518.7402 Q39.0599,518.522 39.5702,518.0521 Z " fill="#000000"/><text fill="#000000" font-family="Verdana" font-size="13.75" lengthAdjust="spacing" textLength="79.0625" x="61.0729" y="520.8551">Transaction</text><line style="stroke:#2688D4;stroke-width:0.5729166666666666;" x1="9.1667" x2="161.5625" y1="535.2004" y2="535.2004"/><text fill="#000000" font-family="Verdana" font-size="13.75" lengthAdjust="spacing" textLength="66.4583" x="20.625" y="559.3368">Integer id</text><text fill="#000000" font-family="Verdana" font-size="13.75" lengthAdjust="spacing" textLength="129.4792" x="20.625" y="587.5059">Integer account_id</text><text fill="#000000" font-family="Verdana" font-size="13.75" lengthAdjust="spacing" textLength="114.5833" x="20.625" y="615.675">String creditCard</text><text fill="#000000" font-family="Verdana" font-size="13.75" lengthAdjust="spacing" textLength="88.2292" x="20.625" y="643.8442">String status</text><text fill="#000000" font-family="Verdana" font-size="13.75" lengthAdjust="spacing" textLength="75.625" x="20.625" y="672.0133">String type</text><text fill="#000000" font-family="Verdana" font-size="13.75" lengthAdjust="spacing" textLength="113.4375" x="20.625" y="700.1825">Number amount</text></g><!--class TransactionLog--><g id="elem_TransactionLog"><rect codeLine="32" fill="#FFFFFF" height="133.3016" id="TransactionLog" rx="4.5833" ry="4.5833" style="stroke:#2688D4;stroke-width:0.5729166666666666;" width="177.6042" x="202.8125" y="537.8313"/><ellipse cx="231.7448" cy="557.645" fill="#ADD1B2" rx="11.4583" ry="11.4583" style="stroke:#181818;stroke-width:1.1458333333333333;"/><path d="M233.8462,562.5125 Q233.3763,562.7542 232.8593,562.8751 Q232.3423,562.9959 231.7716,562.9959 Q229.7441,562.9959 228.6766,561.6599 Q227.609,560.3238 227.609,557.7994 Q227.609,555.2683 228.6766,553.9322 Q229.7441,552.5962 231.7716,552.5962 Q232.3423,552.5962 232.866,552.717 Q233.3897,552.8379 233.8462,553.0796 L233.8462,555.2817 Q233.336,554.8117 232.8559,554.5935 Q232.3759,554.3753 231.8656,554.3753 Q230.778,554.3753 230.2241,555.2381 Q229.6702,556.1008 229.6702,557.7994 Q229.6702,559.4913 230.2241,560.354 Q230.778,561.2168 231.8656,561.2168 Q232.3759,561.2168 232.8559,560.9986 Q233.336,560.7804 233.8462,560.3104 Z " fill="#000000"/><text fill="#000000" font-family="Verdana" font-size="13.75" lengthAdjust="spacing" textLength="103.125" x="255.2344" y="563.1134">TransactionLog</text><line style="stroke:#2688D4;stroke-width:0.5729166666666666;" x1="203.9583" x2="379.2708" y1="577.4587" y2="577.4587"/><text fill="#000000" font-family="Verdana" font-size="13.75" lengthAdjust="spacing" textLength="66.4583" x="215.4167" y="601.5951">Integer id</text><text fill="#000000" font-family="Verdana" font-size="13.75" lengthAdjust="spacing" textLength="152.3958" x="215.4167" y="629.7642">Integer transaction_id</text><text fill="#000000" font-family="Verdana" font-size="13.75" lengthAdjust="spacing" textLength="106.5625" x="215.4167" y="657.9334">String response</text></g><!--reverse link Account to Wallet--><g id="link_Account_Wallet"><path codeLine="38" d="M85.3646,127.2333 C85.3646,168.1167 85.3646,210.7073 85.3646,251.5677 " fill="none" id="Account-backto-Wallet" style="stroke:#2688D4;stroke-width:1.1458333333333333;"/><polygon fill="none" points="85.3646,113.4833,80.7813,120.3583,85.3646,127.2333,89.9479,120.3583,85.3646,113.4833" style="stroke:#2688D4;stroke-width:1.1458333333333333;"/><text fill="#000000" font-family="Verdana" font-size="13.75" lengthAdjust="spacing" textLength="9.1667" x="69.083" y="142.0369">1</text><text fill="#000000" font-family="Verdana" font-size="13.75" lengthAdjust="spacing" textLength="9.1667" x="68.9541" y="233.896">1</text></g><!--reverse link Wallet to Transaction--><g id="link_Wallet_Transaction"><path codeLine="39" d="M85.3646,371.0781 C85.3646,409.1885 85.3646,448.2042 85.3646,495.1948 " fill="none" id="Wallet-backto-Transaction" style="stroke:#2688D4;stroke-width:1.1458333333333333;"/><polygon fill="none" points="85.3646,357.3281,80.7813,364.2031,85.3646,371.0781,89.9479,364.2031,85.3646,357.3281" style="stroke:#2688D4;stroke-width:1.1458333333333333;"/><text fill="#000000" font-family="Verdana" font-size="13.75" lengthAdjust="spacing" textLength="9.1667" x="69.1475" y="385.4719">1</text><text fill="#000000" font-family="Verdana" font-size="13.75" lengthAdjust="spacing" textLength="27.5" x="50.644" y="477.8537">0..*</text></g><!--reverse link Transaction to TransactionLog--><g id="link_Transaction_TransactionLog"><path codeLine="40" d="M176.7906,604.5302 C189.7042,604.5302 189.4177,604.5302 202.5719,604.5302 " fill="none" id="Transaction-backto-TransactionLog" style="stroke:#2688D4;stroke-width:1.1458333333333333;"/><polygon fill="none" points="163.0406,604.5302,169.9156,609.1135,176.7906,604.5302,169.9156,599.9469,163.0406,604.5302" style="stroke:#2688D4;stroke-width:1.1458333333333333;"/><text fill="#000000" font-family="Verdana" font-size="13.75" lengthAdjust="spacing" textLength="9.1667" x="177.8436" y="595.2052">1</text><text fill="#000000" font-family="Verdana" font-size="13.75" lengthAdjust="spacing" textLength="27.5" x="160.5325" y="627.936">0..*</text></g><!--SRC=[TP1FIyGm4CNl-HHZZy9MlIyBiY0iB5uKFCeq6MlOD1CcqqCHlxjfTvTMhBVvyvkybtVZemsz8wZhkwn3e3hrNJ3vv6D2mGw2ZwH38c3HJpRA2PIXOLNkm7aXgvwZMLmaj2TiQRizui2zxdRmPQ1SY2FPSs21Ly6O2qnHnqtXM-4-khNj1qTTcsSb8HwTFQqItyROW3d3exNbRPrC7A9IImBUbUP5nSSMg4CVPlmDGw0L-hdlcb8t631Qclb94wSG_XvT6pnxU5_gMY7dTO-oc6L5xVFSZz-RjR4R7rcLFdBxlxhEt2y7GZbnpDDdhYbL3nNmPkCsKtKEmrmoMUpkw_gsMXemonmkeAo1nQanFm00]--></g></svg>