<?xml version="1.0" encoding="us-ascii" standalone="no"?><svg xmlns="http://www.w3.org/2000/svg" xmlns:xlink="http://www.w3.org/1999/xlink" contentStyleType="text/css" height="1162px" preserveAspectRatio="none" style="width:701px;height:1162px;background:#FFFFFF;" version="1.1" viewBox="0 0 701 1162" width="701px" zoomAndPan="magnify"><defs/><g><rect fill="#FFFFFF" height="928.002" style="stroke:#181818;stroke-width:1.0;" width="10" x="190.5" y="128.1094"/><rect fill="#FFFFFF" height="53.6211" style="stroke:#181818;stroke-width:1.0;" width="10" x="330.5" y="359.9043"/><rect fill="#FFFFFF" height="53.6211" style="stroke:#181818;stroke-width:1.0;" width="10" x="429" y="157.4199"/><rect fill="#FFFFFF" height="64.2764" style="stroke:#181818;stroke-width:1.0;" width="10" x="429" y="266.3174"/><rect fill="#FFFFFF" height="64.5313" style="stroke:#181818;stroke-width:1.0;" width="10" x="429" y="458.1465"/><rect fill="#FFFFFF" height="14" style="stroke:#181818;stroke-width:1.0;" width="10" x="429" y="567.2988"/><rect fill="#FFFFFF" height="14" style="stroke:#181818;stroke-width:1.0;" width="10" x="429" y="712.4512"/><rect fill="#FFFFFF" height="14" style="stroke:#181818;stroke-width:1.0;" width="10" x="429" y="851.6484"/><rect fill="none" height="891.6914" style="stroke:#000000;stroke-width:1.5;" width="684" x="10" y="172.4199"/><rect fill="none" height="691.5625" style="stroke:#000000;stroke-width:1.5;" width="482.5" x="20" y="291.9727"/><rect fill="none" height="528.0547" style="stroke:#000000;stroke-width:1.5;" width="462.5" x="30" y="374.9043"/><rect fill="none" height="290.6152" style="stroke:#000000;stroke-width:1.5;" width="442.5" x="40" y="473.1465"/><line style="stroke:#181818;stroke-width:0.5;stroke-dasharray:5.0,5.0;" x1="86" x2="86" y1="81.4883" y2="1081.1113"/><line style="stroke:#181818;stroke-width:0.5;stroke-dasharray:5.0,5.0;" x1="195" x2="195" y1="81.4883" y2="1081.1113"/><line style="stroke:#181818;stroke-width:0.5;stroke-dasharray:5.0,5.0;" x1="335.5" x2="335.5" y1="81.4883" y2="1081.1113"/><line style="stroke:#181818;stroke-width:0.5;stroke-dasharray:5.0,5.0;" x1="433.5" x2="433.5" y1="81.4883" y2="1081.1113"/><text fill="#000000" font-family="sans-serif" font-size="14" lengthAdjust="spacing" textLength="67" x="50" y="78.5352">Customer</text><ellipse cx="86.5" cy="13.5" fill="#E2E2F0" rx="8" ry="8" style="stroke:#181818;stroke-width:0.5;"/><path d="M86.5,21.5 L86.5,48.5 M73.5,29.5 L99.5,29.5 M86.5,48.5 L73.5,63.5 M86.5,48.5 L99.5,63.5 " fill="none" style="stroke:#181818;stroke-width:0.5;"/><text fill="#000000" font-family="sans-serif" font-size="14" lengthAdjust="spacing" textLength="67" x="50" y="1093.6465">Customer</text><ellipse cx="86.5" cy="1105.0996" fill="#E2E2F0" rx="8" ry="8" style="stroke:#181818;stroke-width:0.5;"/><path d="M86.5,1113.0996 L86.5,1140.0996 M73.5,1121.0996 L99.5,1121.0996 M86.5,1140.0996 L73.5,1155.0996 M86.5,1140.0996 L99.5,1155.0996 " fill="none" style="stroke:#181818;stroke-width:0.5;"/><rect fill="#E2E2F0" height="30.4883" rx="2.5" ry="2.5" style="stroke:#181818;stroke-width:0.5;" width="83" x="154" y="50"/><text fill="#000000" font-family="sans-serif" font-size="14" lengthAdjust="spacing" textLength="69" x="161" y="70.5352">MS-Wallet</text><rect fill="#E2E2F0" height="30.4883" rx="2.5" ry="2.5" style="stroke:#181818;stroke-width:0.5;" width="83" x="154" y="1080.1113"/><text fill="#000000" font-family="sans-serif" font-size="14" lengthAdjust="spacing" textLength="69" x="161" y="1100.6465">MS-Wallet</text><rect fill="#E2E2F0" height="46.9766" rx="2.5" ry="2.5" style="stroke:#181818;stroke-width:0.5;" width="100" x="285.5" y="33.5117"/><text fill="#000000" font-family="sans-serif" font-size="14" lengthAdjust="spacing" textLength="86" x="292.5" y="54.0469">MS-Payment</text><text fill="#000000" font-family="sans-serif" font-size="14" lengthAdjust="spacing" textLength="57" x="307" y="70.5352">Gateway</text><rect fill="#E2E2F0" height="46.9766" rx="2.5" ry="2.5" style="stroke:#181818;stroke-width:0.5;" width="100" x="285.5" y="1080.1113"/><text fill="#000000" font-family="sans-serif" font-size="14" lengthAdjust="spacing" textLength="86" x="292.5" y="1100.6465">MS-Payment</text><text fill="#000000" font-family="sans-serif" font-size="14" lengthAdjust="spacing" textLength="57" x="307" y="1117.1348">Gateway</text><rect fill="#E2E2F0" height="30.4883" rx="2.5" ry="2.5" style="stroke:#181818;stroke-width:0.5;" width="77" x="395.5" y="50"/><text fill="#000000" font-family="sans-serif" font-size="14" lengthAdjust="spacing" textLength="63" x="402.5" y="70.5352">Database</text><rect fill="#E2E2F0" height="30.4883" rx="2.5" ry="2.5" style="stroke:#181818;stroke-width:0.5;" width="77" x="395.5" y="1080.1113"/><text fill="#000000" font-family="sans-serif" font-size="14" lengthAdjust="spacing" textLength="63" x="402.5" y="1100.6465">Database</text><rect fill="#FFFFFF" height="928.002" style="stroke:#181818;stroke-width:1.0;" width="10" x="190.5" y="128.1094"/><rect fill="#FFFFFF" height="53.6211" style="stroke:#181818;stroke-width:1.0;" width="10" x="330.5" y="359.9043"/><rect fill="#FFFFFF" height="53.6211" style="stroke:#181818;stroke-width:1.0;" width="10" x="429" y="157.4199"/><rect fill="#FFFFFF" height="64.2764" style="stroke:#181818;stroke-width:1.0;" width="10" x="429" y="266.3174"/><rect fill="#FFFFFF" height="64.5313" style="stroke:#181818;stroke-width:1.0;" width="10" x="429" y="458.1465"/><rect fill="#FFFFFF" height="14" style="stroke:#181818;stroke-width:1.0;" width="10" x="429" y="567.2988"/><rect fill="#FFFFFF" height="14" style="stroke:#181818;stroke-width:1.0;" width="10" x="429" y="712.4512"/><rect fill="#FFFFFF" height="14" style="stroke:#181818;stroke-width:1.0;" width="10" x="429" y="851.6484"/><polygon fill="#181818" points="178.5,124.1094,188.5,128.1094,178.5,132.1094,182.5,128.1094" style="stroke:#181818;stroke-width:1.0;"/><line style="stroke:#181818;stroke-width:1.0;stroke-dasharray:2.0,2.0;" x1="86.5" x2="184.5" y1="128.1094" y2="128.1094"/><text fill="#000000" font-family="sans-serif" font-size="13" lengthAdjust="spacing" textLength="85" x="93.5" y="108.0566">Charge wallet</text><text fill="#000000" font-family="sans-serif" font-size="13" lengthAdjust="spacing" textLength="47" x="93.5" y="123.3672">request</text><polygon fill="#181818" points="417,153.4199,427,157.4199,417,161.4199,421,157.4199" style="stroke:#181818;stroke-width:1.0;"/><line style="stroke:#181818;stroke-width:1.0;stroke-dasharray:2.0,2.0;" x1="200.5" x2="423" y1="157.4199" y2="157.4199"/><text fill="#000000" font-family="sans-serif" font-size="13" lengthAdjust="spacing" textLength="133" x="207.5" y="152.6777">Validate wallet exists</text><path d="M10,172.4199 L72,172.4199 L72,179.7305 L62,189.7305 L10,189.7305 L10,172.4199 " fill="#EEEEEE" style="stroke:#000000;stroke-width:1.5;"/><rect fill="none" height="891.6914" style="stroke:#000000;stroke-width:1.5;" width="684" x="10" y="172.4199"/><text fill="#000000" font-family="sans-serif" font-size="13" font-weight="bold" lengthAdjust="spacing" textLength="17" x="25" y="185.9883">alt</text><text fill="#000000" font-family="sans-serif" font-size="11" font-weight="bold" lengthAdjust="spacing" textLength="78" x="87" y="185.0547">[Wallet exists]</text><polygon fill="#181818" points="211.5,207.041,201.5,211.041,211.5,215.041,207.5,211.041" style="stroke:#181818;stroke-width:1.0;"/><line style="stroke:#181818;stroke-width:1.0;stroke-dasharray:2.0,2.0;" x1="205.5" x2="433" y1="211.041" y2="211.041"/><text fill="#000000" font-family="sans-serif" font-size="13" lengthAdjust="spacing" textLength="18" x="217.5" y="206.2988">Ok</text><polygon fill="#181818" points="417,262.3174,427,266.3174,417,270.3174,421,266.3174" style="stroke:#181818;stroke-width:1.0;"/><line style="stroke:#181818;stroke-width:1.0;stroke-dasharray:2.0,2.0;" x1="200.5" x2="423" y1="266.3174" y2="266.3174"/><text fill="#000000" font-family="sans-serif" font-size="13" lengthAdjust="spacing" textLength="101" x="207.5" y="246.2646">Create PENDING</text><text fill="#000000" font-family="sans-serif" font-size="13" lengthAdjust="spacing" textLength="71" x="207.5" y="261.5752">transaction</text><path d="M444,224.041 L444,279.041 L689,279.041 L689,234.041 L679,224.041 L444,224.041 " fill="#FEFFDD" style="stroke:#181818;stroke-width:0.5;"/><path d="M679,224.041 L679,234.041 L689,234.041 L679,224.041 " fill="#FEFFDD" style="stroke:#181818;stroke-width:0.5;"/><text fill="#000000" font-family="sans-serif" font-size="13" lengthAdjust="spacing" textLength="224" x="450" y="241.6094">The transaction is a database entity</text><text fill="#000000" font-family="sans-serif" font-size="13" lengthAdjust="spacing" textLength="180" x="450" y="256.9199">that is very useful to recover</text><text fill="#000000" font-family="sans-serif" font-size="13" lengthAdjust="spacing" textLength="200" x="450" y="272.2305">the system when failures occur.</text><path d="M20,291.9727 L82,291.9727 L82,299.2832 L72,309.2832 L20,309.2832 L20,291.9727 " fill="#EEEEEE" style="stroke:#000000;stroke-width:1.5;"/><rect fill="none" height="691.5625" style="stroke:#000000;stroke-width:1.5;" width="482.5" x="20" y="291.9727"/><text fill="#000000" font-family="sans-serif" font-size="13" font-weight="bold" lengthAdjust="spacing" textLength="17" x="35" y="305.541">alt</text><text fill="#000000" font-family="sans-serif" font-size="11" font-weight="bold" lengthAdjust="spacing" textLength="120" x="97" y="304.6074">[Transaction Created]</text><polygon fill="#181818" points="211.5,326.5938,201.5,330.5938,211.5,334.5938,207.5,330.5938" style="stroke:#181818;stroke-width:1.0;"/><line style="stroke:#181818;stroke-width:1.0;stroke-dasharray:2.0,2.0;" x1="205.5" x2="433" y1="330.5938" y2="330.5938"/><text fill="#000000" font-family="sans-serif" font-size="13" lengthAdjust="spacing" textLength="94" x="217.5" y="325.8516">Db Commit OK</text><polygon fill="#181818" points="318.5,355.9043,328.5,359.9043,318.5,363.9043,322.5,359.9043" style="stroke:#181818;stroke-width:1.0;"/><line style="stroke:#181818;stroke-width:1.0;stroke-dasharray:2.0,2.0;" x1="200.5" x2="324.5" y1="359.9043" y2="359.9043"/><text fill="#000000" font-family="sans-serif" font-size="13" lengthAdjust="spacing" textLength="111" x="207.5" y="355.1621">Charge creditcard</text><path d="M30,374.9043 L92,374.9043 L92,382.2148 L82,392.2148 L30,392.2148 L30,374.9043 " fill="#EEEEEE" style="stroke:#000000;stroke-width:1.5;"/><rect fill="none" height="528.0547" style="stroke:#000000;stroke-width:1.5;" width="462.5" x="30" y="374.9043"/><text fill="#000000" font-family="sans-serif" font-size="13" font-weight="bold" lengthAdjust="spacing" textLength="17" x="45" y="388.4727">alt</text><text fill="#000000" font-family="sans-serif" font-size="11" font-weight="bold" lengthAdjust="spacing" textLength="125" x="107" y="387.5391">[Success charge (200)]</text><polygon fill="#181818" points="211.5,409.5254,201.5,413.5254,211.5,417.5254,207.5,413.5254" style="stroke:#181818;stroke-width:1.0;"/><line style="stroke:#181818;stroke-width:1.0;stroke-dasharray:2.0,2.0;" x1="205.5" x2="334.5" y1="413.5254" y2="413.5254"/><text fill="#000000" font-family="sans-serif" font-size="13" lengthAdjust="spacing" textLength="24" x="217.5" y="408.7832">200</text><polygon fill="#181818" points="417,454.1465,427,458.1465,417,462.1465,421,458.1465" style="stroke:#181818;stroke-width:1.0;"/><line style="stroke:#181818;stroke-width:1.0;stroke-dasharray:2.0,2.0;" x1="200.5" x2="423" y1="458.1465" y2="458.1465"/><text fill="#000000" font-family="sans-serif" font-size="13" lengthAdjust="spacing" textLength="85" x="207.5" y="438.0938">Update wallet</text><text fill="#000000" font-family="sans-serif" font-size="13" lengthAdjust="spacing" textLength="48" x="207.5" y="453.4043">balance</text><path d="M40,473.1465 L102,473.1465 L102,480.457 L92,490.457 L40,490.457 L40,473.1465 " fill="#EEEEEE" style="stroke:#000000;stroke-width:1.5;"/><rect fill="none" height="290.6152" style="stroke:#000000;stroke-width:1.5;" width="442.5" x="40" y="473.1465"/><text fill="#000000" font-family="sans-serif" font-size="13" font-weight="bold" lengthAdjust="spacing" textLength="17" x="55" y="486.7148">alt</text><text fill="#000000" font-family="sans-serif" font-size="11" font-weight="bold" lengthAdjust="spacing" textLength="93" x="117" y="485.7813">[SQL commit OK</text><text fill="#000000" font-family="sans-serif" font-size="11" font-weight="bold" lengthAdjust="spacing" textLength="95" x="117" y="498.7363">(update balance)]</text><polygon fill="#181818" points="211.5,518.6777,201.5,522.6777,211.5,526.6777,207.5,522.6777" style="stroke:#181818;stroke-width:1.0;"/><line style="stroke:#181818;stroke-width:1.0;stroke-dasharray:2.0,2.0;" x1="205.5" x2="433" y1="522.6777" y2="522.6777"/><text fill="#000000" font-family="sans-serif" font-size="13" lengthAdjust="spacing" textLength="18" x="217.5" y="517.9355">Ok</text><polygon fill="#181818" points="417,563.2988,427,567.2988,417,571.2988,421,567.2988" style="stroke:#181818;stroke-width:1.0;"/><line style="stroke:#181818;stroke-width:1.0;stroke-dasharray:2.0,2.0;" x1="200.5" x2="423" y1="567.2988" y2="567.2988"/><text fill="#000000" font-family="sans-serif" font-size="13" lengthAdjust="spacing" textLength="119" x="207.5" y="547.2461">Update transaction</text><text fill="#000000" font-family="sans-serif" font-size="13" lengthAdjust="spacing" textLength="93" x="207.5" y="562.5566">to COMPLETED</text><polygon fill="#181818" points="211.5,577.2988,201.5,581.2988,211.5,585.2988,207.5,581.2988" style="stroke:#181818;stroke-width:1.0;"/><line style="stroke:#181818;stroke-width:1.0;stroke-dasharray:2.0,2.0;" x1="205.5" x2="433" y1="581.2988" y2="581.2988"/><polygon fill="#181818" points="97.5,606.6094,87.5,610.6094,97.5,614.6094,93.5,610.6094" style="stroke:#181818;stroke-width:1.0;"/><line style="stroke:#181818;stroke-width:1.0;stroke-dasharray:2.0,2.0;" x1="91.5" x2="189.5" y1="610.6094" y2="610.6094"/><text fill="#000000" font-family="sans-serif" font-size="13" lengthAdjust="spacing" textLength="24" x="103.5" y="605.8672">200</text><line style="stroke:#000000;stroke-width:1.0;stroke-dasharray:2.0,2.0;" x1="40" x2="482.5" y1="619.6094" y2="619.6094"/><text fill="#000000" font-family="sans-serif" font-size="11" font-weight="bold" lengthAdjust="spacing" textLength="61" x="45" y="630.2441">[SQL failed</text><text fill="#000000" font-family="sans-serif" font-size="11" font-weight="bold" lengthAdjust="spacing" textLength="95" x="45" y="643.1992">(update balance)]</text><polygon fill="#181818" points="211.5,663.8301,201.5,667.8301,211.5,671.8301,207.5,667.8301" style="stroke:#181818;stroke-width:1.0;"/><line style="stroke:#181818;stroke-width:1.0;stroke-dasharray:2.0,2.0;" x1="205.5" x2="433" y1="667.8301" y2="667.8301"/><text fill="#000000" font-family="sans-serif" font-size="13" lengthAdjust="spacing" textLength="62" x="217.5" y="663.0879">Exception</text><polygon fill="#181818" points="417,708.4512,427,712.4512,417,716.4512,421,712.4512" style="stroke:#181818;stroke-width:1.0;"/><line style="stroke:#181818;stroke-width:1.0;stroke-dasharray:2.0,2.0;" x1="200.5" x2="423" y1="712.4512" y2="712.4512"/><text fill="#000000" font-family="sans-serif" font-size="13" lengthAdjust="spacing" textLength="119" x="207.5" y="692.3984">Update transaction</text><text fill="#000000" font-family="sans-serif" font-size="13" lengthAdjust="spacing" textLength="143" x="207.5" y="707.709">to UNKNOWN_FAILURE</text><polygon fill="#181818" points="211.5,722.4512,201.5,726.4512,211.5,730.4512,207.5,726.4512" style="stroke:#181818;stroke-width:1.0;"/><line style="stroke:#181818;stroke-width:1.0;stroke-dasharray:2.0,2.0;" x1="205.5" x2="433" y1="726.4512" y2="726.4512"/><polygon fill="#181818" points="97.5,751.7617,87.5,755.7617,97.5,759.7617,93.5,755.7617" style="stroke:#181818;stroke-width:1.0;"/><line style="stroke:#181818;stroke-width:1.0;stroke-dasharray:2.0,2.0;" x1="91.5" x2="189.5" y1="755.7617" y2="755.7617"/><text fill="#000000" font-family="sans-serif" font-size="13" lengthAdjust="spacing" textLength="50" x="103.5" y="751.0195">40?, 50?</text><line style="stroke:#000000;stroke-width:1.0;stroke-dasharray:2.0,2.0;" x1="30" x2="492.5" y1="771.7617" y2="771.7617"/><text fill="#000000" font-family="sans-serif" font-size="11" font-weight="bold" lengthAdjust="spacing" textLength="89" x="35" y="782.3965">[Charge Failure]</text><polygon fill="#181818" points="211.5,803.0273,201.5,807.0273,211.5,811.0273,207.5,807.0273" style="stroke:#181818;stroke-width:1.0;"/><line style="stroke:#181818;stroke-width:1.0;stroke-dasharray:2.0,2.0;" x1="205.5" x2="334.5" y1="807.0273" y2="807.0273"/><text fill="#000000" font-family="sans-serif" font-size="13" lengthAdjust="spacing" textLength="50" x="217.5" y="802.2852">40?, 50?</text><polygon fill="#181818" points="417,847.6484,427,851.6484,417,855.6484,421,851.6484" style="stroke:#181818;stroke-width:1.0;"/><line style="stroke:#181818;stroke-width:1.0;stroke-dasharray:2.0,2.0;" x1="200.5" x2="423" y1="851.6484" y2="851.6484"/><text fill="#000000" font-family="sans-serif" font-size="13" lengthAdjust="spacing" textLength="119" x="207.5" y="831.5957">Update transaction</text><text fill="#000000" font-family="sans-serif" font-size="13" lengthAdjust="spacing" textLength="137" x="207.5" y="846.9063">to CHARGED_FAILURE</text><polygon fill="#181818" points="211.5,861.6484,201.5,865.6484,211.5,869.6484,207.5,865.6484" style="stroke:#181818;stroke-width:1.0;"/><line style="stroke:#181818;stroke-width:1.0;stroke-dasharray:2.0,2.0;" x1="205.5" x2="433" y1="865.6484" y2="865.6484"/><polygon fill="#181818" points="97.5,890.959,87.5,894.959,97.5,898.959,93.5,894.959" style="stroke:#181818;stroke-width:1.0;"/><line style="stroke:#181818;stroke-width:1.0;stroke-dasharray:2.0,2.0;" x1="91.5" x2="189.5" y1="894.959" y2="894.959"/><text fill="#000000" font-family="sans-serif" font-size="13" lengthAdjust="spacing" textLength="50" x="103.5" y="890.2168">40?, 50?</text><line style="stroke:#000000;stroke-width:1.0;stroke-dasharray:2.0,2.0;" x1="20" x2="502.5" y1="910.959" y2="910.959"/><text fill="#000000" font-family="sans-serif" font-size="11" font-weight="bold" lengthAdjust="spacing" textLength="140" x="25" y="921.5938">[Transaction not created]</text><polygon fill="#181818" points="211.5,942.2246,201.5,946.2246,211.5,950.2246,207.5,946.2246" style="stroke:#181818;stroke-width:1.0;"/><line style="stroke:#181818;stroke-width:1.0;stroke-dasharray:2.0,2.0;" x1="205.5" x2="433" y1="946.2246" y2="946.2246"/><text fill="#000000" font-family="sans-serif" font-size="13" lengthAdjust="spacing" textLength="62" x="217.5" y="941.4824">Exception</text><polygon fill="#181818" points="97.5,971.5352,87.5,975.5352,97.5,979.5352,93.5,975.5352" style="stroke:#181818;stroke-width:1.0;"/><line style="stroke:#181818;stroke-width:1.0;stroke-dasharray:2.0,2.0;" x1="91.5" x2="189.5" y1="975.5352" y2="975.5352"/><text fill="#000000" font-family="sans-serif" font-size="13" lengthAdjust="spacing" textLength="21" x="103.5" y="970.793">40?</text><line style="stroke:#000000;stroke-width:1.0;stroke-dasharray:2.0,2.0;" x1="10" x2="694" y1="991.5352" y2="991.5352"/><text fill="#000000" font-family="sans-serif" font-size="11" font-weight="bold" lengthAdjust="spacing" textLength="99" x="15" y="1002.1699">[wallet not exists]</text><polygon fill="#181818" points="211.5,1022.8008,201.5,1026.8008,211.5,1030.8008,207.5,1026.8008" style="stroke:#181818;stroke-width:1.0;"/><line style="stroke:#181818;stroke-width:1.0;stroke-dasharray:2.0,2.0;" x1="205.5" x2="433" y1="1026.8008" y2="1026.8008"/><text fill="#000000" font-family="sans-serif" font-size="13" lengthAdjust="spacing" textLength="62" x="217.5" y="1022.0586">Exception</text><polygon fill="#181818" points="97.5,1052.1113,87.5,1056.1113,97.5,1060.1113,93.5,1056.1113" style="stroke:#181818;stroke-width:1.0;"/><line style="stroke:#181818;stroke-width:1.0;stroke-dasharray:2.0,2.0;" x1="91.5" x2="194.5" y1="1056.1113" y2="1056.1113"/><text fill="#000000" font-family="sans-serif" font-size="13" lengthAdjust="spacing" textLength="24" x="103.5" y="1051.3691">404</text><!--SRC=[lLLDRzf04BtxLunoIgLIeIgzvD0e0eT68K03b0jIDQmdOLMpfhlh4FvzlMilU6CxHlto1NdtpSoRnvinCfr8wALA9nkImHQbvenlKMWukvzs5XZ7fCy05Kn9FjSW9hZVaD1BCK1DEznRR75O7FanVTIuGaKMw5w2m560JkTpKUiIUckKJmGxos8f9FrCIUa0cURFMMx7AV-naIxX9Np3c4S6b4S3lN2brJ7sM1fZ3GiF1DdZxZr2un_sBgAQDEQYbabFaa5Emb7_TZHO2YrHA9CW4JQecikSYYGxaVnfhUqhm6nDK0e5hW0XSYmpkRdU5r2zHctkCovxI1KzfZ7e12InnEZbG0HghpHjOBSc0O_8urIIWeInL7wmA1AH9P9tPuIQbHZaZKL5lWR9-Yle9PiDrp2-Eo3h17Ht9Grz7ntym2H5N3EKnzA7TA-iTmHatASfOwGKi3pD-STkzzq1O1u_s6iZmthGKWTD9HiDCT-MZBaKAunHCFBY6lpbTVDr2CmfknJdQPwroEOtrcReXixgYxVrLJ9fPlO4UkFxoJ2SXVrAbcOJl47wZmcxLLFzKodEAXbTpInGzBkYXY-CjeVn_gVQpaTte_5YzFtc-dOuVmZ_ey8d2NpHlNeFdxfNlihYEBTMyMAiR_85TEf4rYV_2tDPyU-NwuT1sA_L-6rTshHjjKEjgDN6dQ9MpVA6pdQtsPRjMxfgsHDNj4_BVJG2owJuyXeIRHzMltvJxQQw5w-Z2gqDaw1o_0i0]--></g></svg>