<?xml version="1.0" encoding="us-ascii" standalone="no"?><svg xmlns="http://www.w3.org/2000/svg" xmlns:xlink="http://www.w3.org/1999/xlink" contentStyleType="text/css" height="880px" preserveAspectRatio="none" style="width:351px;height:880px;background:#FFFFFF;" version="1.1" viewBox="0 0 351 880" width="351.7708px" zoomAndPan="magnify"><defs/><g><!--class Account--><g id="elem_Account"><rect codeLine="4" fill="#FFFFFF" height="245.9782" id="Account" rx="4.5833" ry="4.5833" style="stroke:#2688D4;stroke-width:0.5729166666666666;" width="143.2292" x="8.0208" y="8.0208"/><ellipse cx="43.1406" cy="27.8346" fill="#ADD1B2" rx="11.4583" ry="11.4583" style="stroke:#181818;stroke-width:1.1458333333333333;"/><path d="M45.9291,32.9908 L39.6852,32.9908 L39.6852,22.967 L45.9291,22.967 L45.9291,24.7126 L41.6658,24.7126 L41.6658,26.8745 L45.5263,26.8745 L45.5263,28.6201 L41.6658,28.6201 L41.6658,31.2452 L45.9291,31.2452 Z " fill="#000000"/><text fill="#000000" font-family="Verdana" font-size="13.75" lengthAdjust="spacing" textLength="55" x="68.0052" y="33.303">Account</text><line style="stroke:#2688D4;stroke-width:0.5729166666666666;" x1="9.1667" x2="150.1042" y1="47.6483" y2="47.6483"/><text fill="#000000" font-family="Verdana" font-size="13.75" lengthAdjust="spacing" textLength="58.4375" x="20.625" y="71.7847">id: UUID</text><text fill="#000000" font-family="Verdana" font-size="13.75" lengthAdjust="spacing" textLength="88.2292" x="20.625" y="99.9538">email: String</text><text fill="#000000" font-family="Verdana" font-size="13.75" lengthAdjust="spacing" textLength="81.3542" x="20.625" y="128.123">alias: String</text><text fill="#000000" font-family="Verdana" font-size="13.75" lengthAdjust="spacing" textLength="118.0208" x="20.625" y="156.2921">firstName: String</text><text fill="#000000" font-family="Verdana" font-size="13.75" lengthAdjust="spacing" textLength="115.7292" x="20.625" y="184.4613">lastName: String</text><text fill="#000000" font-family="Verdana" font-size="13.75" lengthAdjust="spacing" textLength="112.2917" x="20.625" y="212.6304">updatedAt: Date</text><text fill="#000000" font-family="Verdana" font-size="13.75" lengthAdjust="spacing" textLength="107.7083" x="20.625" y="240.7996">createdAt: Date</text></g><!--class Wallet--><g id="elem_Wallet"><rect codeLine="14" fill="#FFFFFF" height="161.4707" id="Wallet" rx="4.5833" ry="4.5833" style="stroke:#2688D4;stroke-width:0.5729166666666666;" width="142.0833" x="8.5938" y="463.0771"/><ellipse cx="48.8698" cy="482.8908" fill="#ADD1B2" rx="11.4583" ry="11.4583" style="stroke:#181818;stroke-width:1.1458333333333333;"/><path d="M51.6583,488.0471 L45.4144,488.0471 L45.4144,478.0233 L51.6583,478.0233 L51.6583,479.7689 L47.395,479.7689 L47.395,481.9307 L51.2555,481.9307 L51.2555,483.6763 L47.395,483.6763 L47.395,486.3015 L51.6583,486.3015 Z " fill="#000000"/><text fill="#000000" font-family="Verdana" font-size="13.75" lengthAdjust="spacing" textLength="42.3958" x="74.8802" y="488.3593">Wallet</text><line style="stroke:#2688D4;stroke-width:0.5729166666666666;" x1="9.7396" x2="149.5313" y1="502.7046" y2="502.7046"/><text fill="#000000" font-family="Verdana" font-size="13.75" lengthAdjust="spacing" textLength="58.4375" x="21.1979" y="526.8409">id: UUID</text><text fill="#000000" font-family="Verdana" font-size="13.75" lengthAdjust="spacing" textLength="116.875" x="21.1979" y="555.0101">balance: Number</text><text fill="#000000" font-family="Verdana" font-size="13.75" lengthAdjust="spacing" textLength="112.2917" x="21.1979" y="583.1792">updatedAt: Date</text><text fill="#000000" font-family="Verdana" font-size="13.75" lengthAdjust="spacing" textLength="107.7083" x="21.1979" y="611.3484">createdAt: Date</text></g><!--class Transaction--><g id="elem_Transaction"><rect codeLine="21" fill="#FFFFFF" height="302.3165" id="Transaction" rx="4.5833" ry="4.5833" style="stroke:#2688D4;stroke-width:0.5729166666666666;" width="153.5417" x="190.7813" y="392.6542"/><ellipse cx="219.7135" cy="412.4679" fill="#ADD1B2" rx="11.4583" ry="11.4583" style="stroke:#181818;stroke-width:1.1458333333333333;"/><path d="M222.502,417.6242 L216.2581,417.6242 L216.2581,407.6004 L222.502,407.6004 L222.502,409.346 L218.2387,409.346 L218.2387,411.5078 L222.0992,411.5078 L222.0992,413.2534 L218.2387,413.2534 L218.2387,415.8786 L222.502,415.8786 Z " fill="#000000"/><text fill="#000000" font-family="Verdana" font-size="13.75" lengthAdjust="spacing" textLength="79.0625" x="243.2031" y="417.9364">Transaction</text><line style="stroke:#2688D4;stroke-width:0.5729166666666666;" x1="191.9271" x2="343.1771" y1="432.2816" y2="432.2816"/><text fill="#000000" font-family="Verdana" font-size="13.75" lengthAdjust="spacing" textLength="58.4375" x="203.3854" y="456.418">id: UUID</text><text fill="#000000" font-family="Verdana" font-size="13.75" lengthAdjust="spacing" textLength="128.3333" x="203.3854" y="484.5872">payment_id: UUID</text><text fill="#000000" font-family="Verdana" font-size="13.75" lengthAdjust="spacing" textLength="107.7083" x="203.3854" y="512.7563">wallet_id: UUID</text><text fill="#000000" font-family="Verdana" font-size="13.75" lengthAdjust="spacing" textLength="81.3542" x="203.3854" y="540.9254">type: String</text><text fill="#000000" font-family="Verdana" font-size="13.75" lengthAdjust="spacing" textLength="93.9583" x="203.3854" y="569.0946">status: String</text><text fill="#000000" font-family="Verdana" font-size="13.75" lengthAdjust="spacing" textLength="120.3125" x="203.3854" y="597.2637">creditCard: String</text><text fill="#000000" font-family="Verdana" font-size="13.75" lengthAdjust="spacing" textLength="119.1667" x="203.3854" y="625.4329">amount: Number</text><text fill="#000000" font-family="Verdana" font-size="13.75" lengthAdjust="spacing" textLength="112.2917" x="203.3854" y="653.602">updatedAt: Date</text><text fill="#000000" font-family="Verdana" font-size="13.75" lengthAdjust="spacing" textLength="107.7083" x="203.3854" y="681.7712">createdAt: Date</text></g><!--class TransactionLog--><g id="elem_TransactionLog"><rect fill="#FFFFFF" height="39.6275" id="TransactionLog" rx="4.5833" ry="4.5833" style="stroke:#2688D4;stroke-width:0.5729166666666666;" width="148.9583" x="193.0729" y="833.6167"/><ellipse cx="209.1146" cy="853.4304" fill="#ADD1B2" rx="11.4583" ry="11.4583" style="stroke:#181818;stroke-width:1.1458333333333333;"/><path d="M211.216,858.298 Q210.7461,858.5397 210.2291,858.6605 Q209.7121,858.7814 209.1414,858.7814 Q207.1139,858.7814 206.0463,857.4453 Q204.9788,856.1092 204.9788,853.5848 Q204.9788,851.0537 206.0463,849.7176 Q207.1139,848.3816 209.1414,848.3816 Q209.7121,848.3816 210.2358,848.5024 Q210.7595,848.6233 211.216,848.865 L211.216,851.0671 Q210.7058,850.5972 210.2257,850.379 Q209.7457,850.1608 209.2354,850.1608 Q208.1478,850.1608 207.5939,851.0235 Q207.04,851.8862 207.04,853.5848 Q207.04,855.2767 207.5939,856.1395 Q208.1478,857.0022 209.2354,857.0022 Q209.7457,857.0022 210.2257,856.784 Q210.7058,856.5658 211.216,856.0958 Z " fill="#000000"/><text fill="#000000" font-family="Verdana" font-size="13.75" lengthAdjust="spacing" textLength="103.125" x="229.7396" y="858.8989">TransactionLog</text></g><!--link Account to Wallet--><g id="link_Account_Wallet"><path codeLine="35" d="M79.6354,263.4729 C79.6354,330.825 79.6354,394.0177 79.6354,453.3719 " fill="none" id="Account-Wallet" style="stroke:#2688D4;stroke-width:1.1458333333333333;stroke-dasharray:7.0,7.0;"/><line style="stroke:#2688D4;stroke-width:1.1458333333333333;" x1="75.0521" x2="84.2188" y1="258.8896" y2="258.8896"/><line style="stroke:#2688D4;stroke-width:1.1458333333333333;" x1="75.0521" x2="84.2188" y1="262.3271" y2="262.3271"/><line style="stroke:#2688D4;stroke-width:1.1458333333333333;" x1="79.6354" x2="79.6354" y1="263.4729" y2="254.3063"/><line style="stroke:#2688D4;stroke-width:1.1458333333333333;" x1="84.2188" x2="75.0521" y1="457.9552" y2="457.9552"/><line style="stroke:#2688D4;stroke-width:1.1458333333333333;" x1="84.2188" x2="75.0521" y1="454.5177" y2="454.5177"/><line style="stroke:#2688D4;stroke-width:1.1458333333333333;" x1="79.6354" x2="79.6354" y1="453.3719" y2="462.5385"/></g><!--link Wallet to Transaction--><g id="link_Wallet_Transaction"><path codeLine="36" d="M160.3823,544.3854 C173.1354,544.3854 156.6927,544.3854 169.5948,544.3854 " fill="none" id="Wallet-Transaction" style="stroke:#2688D4;stroke-width:1.1458333333333333;stroke-dasharray:7.0,7.0;"/><line style="stroke:#2688D4;stroke-width:1.1458333333333333;" x1="155.799" x2="155.799" y1="548.9688" y2="539.8021"/><line style="stroke:#2688D4;stroke-width:1.1458333333333333;" x1="159.2365" x2="159.2365" y1="548.9688" y2="539.8021"/><line style="stroke:#2688D4;stroke-width:1.1458333333333333;" x1="160.3823" x2="151.2156" y1="544.3854" y2="544.3854"/><line style="stroke:#2688D4;stroke-width:1.1458333333333333;" x1="181.0531" x2="190.2198" y1="544.3854" y2="537.5104"/><line style="stroke:#2688D4;stroke-width:1.1458333333333333;" x1="181.0531" x2="190.2198" y1="544.3854" y2="551.2604"/><line style="stroke:#2688D4;stroke-width:1.1458333333333333;" x1="181.0531" x2="190.2198" y1="544.3854" y2="544.3854"/><ellipse cx="174.1781" cy="544.3854" fill="none" rx="4.5833" ry="4.5833" style="stroke:#2688D4;stroke-width:1.1458333333333333;"/></g><!--link Transaction to TransactionLog--><g id="link_Transaction_TransactionLog"><path codeLine="37" d="M267.5521,704.6073 C267.5521,758.851 267.5521,783.8188 267.5521,812.4531 " fill="none" id="Transaction-TransactionLog" style="stroke:#2688D4;stroke-width:1.1458333333333333;stroke-dasharray:7.0,7.0;"/><line style="stroke:#2688D4;stroke-width:1.1458333333333333;" x1="262.9688" x2="272.1354" y1="700.024" y2="700.024"/><line style="stroke:#2688D4;stroke-width:1.1458333333333333;" x1="262.9688" x2="272.1354" y1="703.4615" y2="703.4615"/><line style="stroke:#2688D4;stroke-width:1.1458333333333333;" x1="267.5521" x2="267.5521" y1="704.6073" y2="695.4406"/><line style="stroke:#2688D4;stroke-width:1.1458333333333333;" x1="267.5521" x2="274.4271" y1="823.9115" y2="833.0781"/><line style="stroke:#2688D4;stroke-width:1.1458333333333333;" x1="267.5521" x2="260.6771" y1="823.9115" y2="833.0781"/><line style="stroke:#2688D4;stroke-width:1.1458333333333333;" x1="267.5521" x2="267.5521" y1="823.9115" y2="833.0781"/><ellipse cx="267.5521" cy="817.0365" fill="none" rx="4.5833" ry="4.5833" style="stroke:#2688D4;stroke-width:1.1458333333333333;"/></g><!--SRC=[bP6nJWCn38RtF8LvWR3VLj452NM1YX6vYIaMJd9A7A5Jh-_U71IKqgb39FkJu_p_dpkEJgediFQ-w2Hannh4b4-E8sOC81n9fv4WPVr8nb1KrWbMpgKQ5Gu6WFq0s-tZkfKKa6M0PyqSzwr7OInT_ywvw0O3TKpm2jNHev9VwG3hLZJYCbsGuv-ILnIXAo4x58okxTpKiADyuywNZB6WKqxn_-8Hfz2ctZhqzQsW9qjWdPsYgBMFeRtiMHym-pwhi2Hwgs9ZVhzYdgtrTfxFYPXpC0kskPrqw7sPtkFFrSk1fxGt9m00]--></g></svg>