<?xml version="1.0" encoding="us-ascii" standalone="no"?><svg xmlns="http://www.w3.org/2000/svg" xmlns:xlink="http://www.w3.org/1999/xlink" contentStyleType="text/css" height="930px" preserveAspectRatio="none" style="width:1752px;height:930px;background:#FFFFFF;" version="1.1" viewBox="0 0 1752 930" width="1752px" zoomAndPan="magnify"><defs/><g><!--cluster wallet--><g id="cluster_wallet"><rect fill="#FFFFFF" height="917.15" rx="2.5" ry="2.5" style="stroke:#808080;stroke-width:1.0;" width="1739" x="7" y="7"/><rect fill="#FFFFFF" height="10" style="stroke:#808080;stroke-width:1.0;" width="15" x="1726" y="12"/><rect fill="#FFFFFF" height="2" style="stroke:#808080;stroke-width:1.0;" width="4" x="1724" y="14"/><rect fill="#FFFFFF" height="2" style="stroke:#808080;stroke-width:1.0;" width="4" x="1724" y="18"/><text fill="#000000" font-family="sans-serif" font-size="14" font-style="italic" lengthAdjust="spacing" textLength="94" x="829.5" y="33.5352">&#171;Spring Boot&#187;</text><text fill="#000000" font-family="sans-serif" font-size="14" font-weight="bold" lengthAdjust="spacing" textLength="44" x="854.5" y="50.0234">wallet</text></g><!--cluster openapi--><g id="cluster_openapi"><rect fill="#FFFFFF" height="252.95" rx="2.5" ry="2.5" style="stroke:#808080;stroke-width:1.0;" width="250" x="31" y="100.76"/><rect fill="#FFFFFF" height="10" style="stroke:#808080;stroke-width:1.0;" width="15" x="261" y="105.76"/><rect fill="#FFFFFF" height="2" style="stroke:#808080;stroke-width:1.0;" width="4" x="259" y="107.76"/><rect fill="#FFFFFF" height="2" style="stroke:#808080;stroke-width:1.0;" width="4" x="259" y="111.76"/><text fill="#000000" font-family="sans-serif" font-size="14" font-style="italic" lengthAdjust="spacing" textLength="94" x="109" y="127.2952">&#171;Spring Boot&#187;</text><text fill="#000000" font-family="sans-serif" font-size="14" font-weight="bold" lengthAdjust="spacing" textLength="57" x="127.5" y="143.7834">openapi</text></g><!--cluster app--><g id="cluster_app"><rect fill="#FFFFFF" height="834.15" rx="2.5" ry="2.5" style="stroke:#808080;stroke-width:1.0;" width="1417" x="305" y="66"/><rect fill="#FFFFFF" height="10" style="stroke:#808080;stroke-width:1.0;" width="15" x="1702" y="71"/><rect fill="#FFFFFF" height="2" style="stroke:#808080;stroke-width:1.0;" width="4" x="1700" y="73"/><rect fill="#FFFFFF" height="2" style="stroke:#808080;stroke-width:1.0;" width="4" x="1700" y="77"/><text fill="#000000" font-family="sans-serif" font-size="14" font-style="italic" lengthAdjust="spacing" textLength="94" x="966.5" y="92.5352">&#171;Spring Boot&#187;</text><text fill="#000000" font-family="sans-serif" font-size="14" font-weight="bold" lengthAdjust="spacing" textLength="26" x="1000.5" y="109.0234">app</text></g><!--cluster main--><g id="cluster_main"><rect fill="#FFFFFF" height="751.15" rx="2.5" ry="2.5" style="stroke:#6495ED;stroke-width:1.0;" width="1153" x="329" y="125"/><rect fill="#FFFFFF" height="10" style="stroke:#6495ED;stroke-width:1.0;" width="15" x="1462" y="130"/><rect fill="#FFFFFF" height="2" style="stroke:#6495ED;stroke-width:1.0;" width="4" x="1460" y="132"/><rect fill="#FFFFFF" height="2" style="stroke:#6495ED;stroke-width:1.0;" width="4" x="1460" y="136"/><text fill="#000000" font-family="sans-serif" font-size="14" font-weight="bold" lengthAdjust="spacing" textLength="36" x="887.5" y="151.5352">main</text></g><!--cluster infrastructure--><g id="cluster_infrastructure"><rect fill="#FFFFFF" height="458.44" rx="2.5" ry="2.5" style="stroke:#6495ED;stroke-width:1.0;" width="1089" x="361" y="385.71"/><rect fill="#FFFFFF" height="10" style="stroke:#6495ED;stroke-width:1.0;" width="15" x="1430" y="390.71"/><rect fill="#FFFFFF" height="2" style="stroke:#6495ED;stroke-width:1.0;" width="4" x="1428" y="392.71"/><rect fill="#FFFFFF" height="2" style="stroke:#6495ED;stroke-width:1.0;" width="4" x="1428" y="396.71"/><text fill="#000000" font-family="sans-serif" font-size="14" font-weight="bold" lengthAdjust="spacing" textLength="99" x="856" y="412.2452">infrastructure</text></g><!--cluster adapterDatabase--><g id="cluster_adapterDatabase"><rect fill="#FFFFFF" height="359.44" rx="2.5" ry="2.5" style="stroke:#6495ED;stroke-width:1.0;" width="170" x="401" y="444.71"/><rect fill="#FFFFFF" height="10" style="stroke:#6495ED;stroke-width:1.0;" width="15" x="551" y="449.71"/><rect fill="#FFFFFF" height="2" style="stroke:#6495ED;stroke-width:1.0;" width="4" x="549" y="451.71"/><rect fill="#FFFFFF" height="2" style="stroke:#6495ED;stroke-width:1.0;" width="4" x="549" y="455.71"/><text fill="#000000" font-family="sans-serif" font-size="14" font-weight="bold" lengthAdjust="spacing" textLength="64" x="454" y="471.2452">database</text></g><!--cluster restApi--><g id="cluster_restApi"><rect fill="#FFFFFF" height="335.2" rx="2.5" ry="2.5" style="stroke:#6495ED;stroke-width:1.0;" width="298" x="771" y="452.71"/><rect fill="#FFFFFF" height="10" style="stroke:#6495ED;stroke-width:1.0;" width="15" x="1049" y="457.71"/><rect fill="#FFFFFF" height="2" style="stroke:#6495ED;stroke-width:1.0;" width="4" x="1047" y="459.71"/><rect fill="#FFFFFF" height="2" style="stroke:#6495ED;stroke-width:1.0;" width="4" x="1047" y="463.71"/><text fill="#000000" font-family="sans-serif" font-size="14" font-weight="bold" lengthAdjust="spacing" textLength="59" x="890.5" y="479.2452">rest-api</text></g><!--cluster restClient--><g id="cluster_restClient"><rect fill="#FFFFFF" height="220.46" rx="2.5" ry="2.5" style="stroke:#6495ED;stroke-width:1.0;" width="317" x="1093" y="452.71"/><rect fill="#FFFFFF" height="10" style="stroke:#6495ED;stroke-width:1.0;" width="15" x="1390" y="457.71"/><rect fill="#FFFFFF" height="2" style="stroke:#6495ED;stroke-width:1.0;" width="4" x="1388" y="459.71"/><rect fill="#FFFFFF" height="2" style="stroke:#6495ED;stroke-width:1.0;" width="4" x="1388" y="463.71"/><text fill="#000000" font-family="sans-serif" font-size="14" font-weight="bold" lengthAdjust="spacing" textLength="77" x="1213" y="479.2452">rest-client</text></g><!--entity generator--><g id="elem_generator"><rect fill="#FFFFFF" height="62.9766" rx="2.5" ry="2.5" style="stroke:#6495ED;stroke-width:0.5;" width="218" x="47" y="274.73"/><rect fill="#FFFFFF" height="10" style="stroke:#6495ED;stroke-width:0.5;" width="15" x="245" y="279.73"/><rect fill="#FFFFFF" height="2" style="stroke:#6495ED;stroke-width:0.5;" width="4" x="243" y="281.73"/><rect fill="#FFFFFF" height="2" style="stroke:#6495ED;stroke-width:0.5;" width="4" x="243" y="285.73"/><text fill="#000000" font-family="sans-serif" font-size="14" font-style="italic" lengthAdjust="spacing" textLength="178" x="62" y="308.2652">&#171;Generator Maven Plugin&#187;</text><text fill="#000000" font-family="sans-serif" font-size="14" lengthAdjust="spacing" textLength="68" x="117" y="324.7534">generator</text></g><!--entity specification--><g id="elem_specification"><rect fill="#FFFFFF" height="62.9766" rx="2.5" ry="2.5" style="stroke:#6495ED;stroke-width:0.5;" width="192" x="60" y="151.76"/><rect fill="#FFFFFF" height="10" style="stroke:#6495ED;stroke-width:0.5;" width="15" x="232" y="156.76"/><rect fill="#FFFFFF" height="2" style="stroke:#6495ED;stroke-width:0.5;" width="4" x="230" y="158.76"/><rect fill="#FFFFFF" height="2" style="stroke:#6495ED;stroke-width:0.5;" width="4" x="230" y="162.76"/><text fill="#000000" font-family="sans-serif" font-size="14" font-style="italic" lengthAdjust="spacing" textLength="152" x="75" y="185.2952">&#171;API definition (yaml)&#187;</text><text fill="#000000" font-family="sans-serif" font-size="14" lengthAdjust="spacing" textLength="86" x="108" y="201.7834">specification</text></g><g id="elem_GMN47"><path d="M1498,170.59 L1498,180.15 L1457.43,184.15 L1498,188.15 L1498,195.9005 A0,0 0 0 0 1498,195.9005 L1610,195.9005 A0,0 0 0 0 1610,195.9005 L1610,180.59 L1600,170.59 L1498,170.59 A0,0 0 0 0 1498,170.59 " fill="#FFFFE0" style="stroke:#D2B48C;stroke-width:0.5;"/><path d="M1600,170.59 L1600,180.59 L1610,180.59 L1600,170.59 " fill="#FFFFE0" style="stroke:#D2B48C;stroke-width:0.5;"/><text fill="#000000" font-family="sans-serif" font-size="13" lengthAdjust="spacing" textLength="91" x="1504" y="188.1584">Domain Model</text></g><g id="elem_GMN50"><path d="M1498,278.25 L1498,303.15 L1463.31,307.15 L1498,311.15 L1498,334.1816 A0,0 0 0 0 1498,334.1816 L1706,334.1816 A0,0 0 0 0 1706,334.1816 L1706,288.25 L1696,278.25 L1498,278.25 A0,0 0 0 0 1498,278.25 " fill="#FFFFE0" style="stroke:#D2B48C;stroke-width:0.5;"/><path d="M1696,278.25 L1696,288.25 L1706,288.25 L1696,278.25 " fill="#FFFFE0" style="stroke:#D2B48C;stroke-width:0.5;"/><text fill="#000000" font-family="sans-serif" font-size="13" lengthAdjust="spacing" textLength="112" x="1504" y="295.8184">Ports &#171;interfaces&#187;</text><text fill="#000000" font-family="sans-serif" font-size="13" lengthAdjust="spacing" textLength="187" x="1504" y="311.1289">Input Ports Impl &#171;Interactors&#187;</text><text fill="#000000" font-family="sans-serif" font-size="13" lengthAdjust="spacing" textLength="51" x="1504" y="326.4395">Services</text></g><!--entity domain--><g id="elem_domain"><rect fill="#FFFFFF" height="46.4883" rx="2.5" ry="2.5" style="stroke:#6495ED;stroke-width:0.5;" width="92" x="1365" y="160"/><rect fill="#FFFFFF" height="10" style="stroke:#6495ED;stroke-width:0.5;" width="15" x="1437" y="165"/><rect fill="#FFFFFF" height="2" style="stroke:#6495ED;stroke-width:0.5;" width="4" x="1435" y="167"/><rect fill="#FFFFFF" height="2" style="stroke:#6495ED;stroke-width:0.5;" width="4" x="1435" y="171"/><text fill="#000000" font-family="sans-serif" font-size="14" lengthAdjust="spacing" textLength="52" x="1380" y="193.5352">domain</text></g><!--entity application--><g id="elem_application"><rect fill="#FFFFFF" height="46.4883" rx="2.5" ry="2.5" style="stroke:#6495ED;stroke-width:0.5;" width="116" x="1347" y="282.98"/><rect fill="#FFFFFF" height="10" style="stroke:#6495ED;stroke-width:0.5;" width="15" x="1443" y="287.98"/><rect fill="#FFFFFF" height="2" style="stroke:#6495ED;stroke-width:0.5;" width="4" x="1441" y="289.98"/><rect fill="#FFFFFF" height="2" style="stroke:#6495ED;stroke-width:0.5;" width="4" x="1441" y="293.98"/><text fill="#000000" font-family="sans-serif" font-size="14" lengthAdjust="spacing" textLength="76" x="1362" y="316.5152">application</text></g><g id="elem_GMN21"><path d="M594.5,605.37 L594.5,645.9911 L755.5,645.9911 L755.5,615.37 L745.5,605.37 L594.5,605.37 " fill="#FFFFE0" style="stroke:#D2B48C;stroke-width:0.5;"/><path d="M745.5,605.37 L745.5,615.37 L755.5,615.37 L745.5,605.37 " fill="#FFFFE0" style="stroke:#D2B48C;stroke-width:1.0;"/><text fill="#000000" font-family="sans-serif" font-size="13" lengthAdjust="spacing" textLength="132" x="600.5" y="622.9384">DB Ports &#171;impl&#187; (out)</text><text fill="#000000" font-family="sans-serif" font-size="13" lengthAdjust="spacing" textLength="140" x="600.5" y="638.2489">Database Repositories</text></g><!--entity dbo--><g id="elem_dbo"><rect fill="#FFFFFF" height="46.4883" rx="2.5" ry="2.5" style="stroke:#6495ED;stroke-width:0.5;" width="67" x="448.5" y="487.71"/><rect fill="#FFFFFF" height="10" style="stroke:#6495ED;stroke-width:0.5;" width="15" x="495.5" y="492.71"/><rect fill="#FFFFFF" height="2" style="stroke:#6495ED;stroke-width:0.5;" width="4" x="493.5" y="494.71"/><rect fill="#FFFFFF" height="2" style="stroke:#6495ED;stroke-width:0.5;" width="4" x="493.5" y="498.71"/><text fill="#000000" font-family="sans-serif" font-size="14" lengthAdjust="spacing" textLength="27" x="463.5" y="521.2452">dbo</text></g><!--entity repository--><g id="elem_repository"><rect fill="#FFFFFF" height="46.4883" rx="2.5" ry="2.5" style="stroke:#6495ED;stroke-width:0.5;" width="110" x="427" y="602.44"/><rect fill="#FFFFFF" height="10" style="stroke:#6495ED;stroke-width:0.5;" width="15" x="517" y="607.44"/><rect fill="#FFFFFF" height="2" style="stroke:#6495ED;stroke-width:0.5;" width="4" x="515" y="609.44"/><rect fill="#FFFFFF" height="2" style="stroke:#6495ED;stroke-width:0.5;" width="4" x="515" y="613.44"/><text fill="#000000" font-family="sans-serif" font-size="14" lengthAdjust="spacing" textLength="70" x="442" y="635.9752">repository</text></g><!--entity adapter--><g id="elem_adapter"><rect fill="#FFFFFF" height="62.9766" rx="2.5" ry="2.5" style="stroke:#6495ED;stroke-width:0.5;" width="114" x="425" y="717.17"/><rect fill="#FFFFFF" height="10" style="stroke:#6495ED;stroke-width:0.5;" width="15" x="519" y="722.17"/><rect fill="#FFFFFF" height="2" style="stroke:#6495ED;stroke-width:0.5;" width="4" x="517" y="724.17"/><rect fill="#FFFFFF" height="2" style="stroke:#6495ED;stroke-width:0.5;" width="4" x="517" y="728.17"/><text fill="#000000" font-family="sans-serif" font-size="14" font-style="italic" lengthAdjust="spacing" textLength="74" x="440" y="750.7052">&#171;OutPorts&#187;</text><text fill="#000000" font-family="sans-serif" font-size="14" lengthAdjust="spacing" textLength="53" x="450.5" y="767.1934">adapter</text></g><!--entity api_lib--><g id="elem_api_lib"><rect fill="#FFFFFF" height="46.4883" rx="2.5" ry="2.5" style="stroke:#6495ED;stroke-width:0.5;" width="85" x="797.5" y="602.44"/><rect fill="#FFFFFF" height="10" style="stroke:#6495ED;stroke-width:0.5;" width="15" x="862.5" y="607.44"/><rect fill="#FFFFFF" height="2" style="stroke:#6495ED;stroke-width:0.5;" width="4" x="860.5" y="609.44"/><rect fill="#FFFFFF" height="2" style="stroke:#6495ED;stroke-width:0.5;" width="4" x="860.5" y="613.44"/><text fill="#000000" font-family="sans-serif" font-size="14" lengthAdjust="spacing" textLength="45" x="812.5" y="635.9752">api_lib</text></g><!--entity restApiDto--><g id="elem_restApiDto"><rect fill="#FFFFFF" height="46.4883" rx="2.5" ry="2.5" style="stroke:#6495ED;stroke-width:0.5;" width="63" x="808.5" y="487.71"/><rect fill="#FFFFFF" height="10" style="stroke:#6495ED;stroke-width:0.5;" width="15" x="851.5" y="492.71"/><rect fill="#FFFFFF" height="2" style="stroke:#6495ED;stroke-width:0.5;" width="4" x="849.5" y="494.71"/><rect fill="#FFFFFF" height="2" style="stroke:#6495ED;stroke-width:0.5;" width="4" x="849.5" y="498.71"/><text fill="#000000" font-family="sans-serif" font-size="14" lengthAdjust="spacing" textLength="23" x="823.5" y="521.2452">dto</text></g><!--entity controller--><g id="elem_controller"><rect fill="#FFFFFF" height="46.4883" rx="2.5" ry="2.5" style="stroke:#6495ED;stroke-width:0.5;" width="107" x="786.5" y="725.42"/><rect fill="#FFFFFF" height="10" style="stroke:#6495ED;stroke-width:0.5;" width="15" x="873.5" y="730.42"/><rect fill="#FFFFFF" height="2" style="stroke:#6495ED;stroke-width:0.5;" width="4" x="871.5" y="732.42"/><rect fill="#FFFFFF" height="2" style="stroke:#6495ED;stroke-width:0.5;" width="4" x="871.5" y="736.42"/><text fill="#000000" font-family="sans-serif" font-size="14" lengthAdjust="spacing" textLength="67" x="801.5" y="758.9552">controller</text></g><g id="elem_GMN32"><path d="M928.5,736.01 L928.5,745.15 L893.66,749.15 L928.5,753.15 L928.5,761.3205 A0,0 0 0 0 928.5,761.3205 L1053.5,761.3205 A0,0 0 0 0 1053.5,761.3205 L1053.5,746.01 L1043.5,736.01 L928.5,736.01 A0,0 0 0 0 928.5,736.01 " fill="#FFFFE0" style="stroke:#D2B48C;stroke-width:0.5;"/><path d="M1043.5,736.01 L1043.5,746.01 L1053.5,746.01 L1043.5,736.01 " fill="#FFFFE0" style="stroke:#D2B48C;stroke-width:0.5;"/><text fill="#000000" font-family="sans-serif" font-size="13" lengthAdjust="spacing" textLength="104" x="934.5" y="753.5784">REST Controllers</text></g><!--entity restClientDto--><g id="elem_restClientDto"><rect fill="#FFFFFF" height="46.4883" rx="2.5" ry="2.5" style="stroke:#6495ED;stroke-width:0.5;" width="63" x="1143.5" y="487.71"/><rect fill="#FFFFFF" height="10" style="stroke:#6495ED;stroke-width:0.5;" width="15" x="1186.5" y="492.71"/><rect fill="#FFFFFF" height="2" style="stroke:#6495ED;stroke-width:0.5;" width="4" x="1184.5" y="494.71"/><rect fill="#FFFFFF" height="2" style="stroke:#6495ED;stroke-width:0.5;" width="4" x="1184.5" y="498.71"/><text fill="#000000" font-family="sans-serif" font-size="14" lengthAdjust="spacing" textLength="23" x="1158.5" y="521.2452">dto</text></g><!--entity adapterClient--><g id="elem_adapterClient"><rect fill="#FFFFFF" height="62.9766" rx="2.5" ry="2.5" style="stroke:#6495ED;stroke-width:0.5;" width="133" x="1108.5" y="594.2"/><rect fill="#FFFFFF" height="10" style="stroke:#6495ED;stroke-width:0.5;" width="15" x="1221.5" y="599.2"/><rect fill="#FFFFFF" height="2" style="stroke:#6495ED;stroke-width:0.5;" width="4" x="1219.5" y="601.2"/><rect fill="#FFFFFF" height="2" style="stroke:#6495ED;stroke-width:0.5;" width="4" x="1219.5" y="605.2"/><text fill="#000000" font-family="sans-serif" font-size="14" font-style="italic" lengthAdjust="spacing" textLength="74" x="1133" y="627.7352">&#171;OutPorts&#187;</text><text fill="#000000" font-family="sans-serif" font-size="14" lengthAdjust="spacing" textLength="93" x="1123.5" y="644.2234">adapterClient</text></g><g id="elem_GMN40"><path d="M1276.5,613.03 L1276.5,622.15 L1241.93,626.15 L1276.5,630.15 L1276.5,638.3405 A0,0 0 0 0 1276.5,638.3405 L1393.5,638.3405 A0,0 0 0 0 1393.5,638.3405 L1393.5,623.03 L1383.5,613.03 L1276.5,613.03 A0,0 0 0 0 1276.5,613.03 " fill="#FFFFE0" style="stroke:#D2B48C;stroke-width:0.5;"/><path d="M1383.5,613.03 L1383.5,623.03 L1393.5,623.03 L1383.5,613.03 " fill="#FFFFE0" style="stroke:#D2B48C;stroke-width:0.5;"/><text fill="#000000" font-family="sans-serif" font-size="13" lengthAdjust="spacing" textLength="96" x="1282.5" y="630.5984">REST templates</text></g><!--reverse link specification to generator--><g id="link_specification_generator"><path d="M156,220.91 C156,239.27 156,256.32 156,274.66 " fill="none" id="specification-backto-generator" style="stroke:#00008B;stroke-width:1.0;"/><polygon fill="#00008B" points="156,214.91,152,223.91,156,219.91,160,223.91,156,214.91" style="stroke:#00008B;stroke-width:1.0;"/></g><!--reverse link dbo to repository--><g id="link_dbo_repository"><path d="M482,540.45 C482,560.25 482,582.43 482,602.22 " fill="none" id="dbo-backto-repository" style="stroke:#00008B;stroke-width:1.0;"/><polygon fill="#00008B" points="482,534.45,478,543.45,482,539.45,486,543.45,482,534.45" style="stroke:#00008B;stroke-width:1.0;"/></g><!--reverse link repository to adapter--><g id="link_repository_adapter"><path d="M482,655.4 C482,674.66 482,696 482,717.11 " fill="none" id="repository-backto-adapter" style="stroke:#00008B;stroke-width:1.0;"/><polygon fill="#00008B" points="482,649.4,478,658.4,482,654.4,486,658.4,482,649.4" style="stroke:#00008B;stroke-width:1.0;"/></g><!--link adapterDatabase to GMN21--><g id="link_adapterDatabase_GMN21"><path d="M571.08,626.15 C571.1218,626.15 571.1637,626.15 571.2057,626.15 C571.2898,626.15 571.3745,626.15 571.4597,626.15 C571.6301,626.15 571.8027,626.15 571.9775,626.15 C577.57,626.15 585.37,626.15 594.2,626.15 " fill="none" id="adapterDatabase-GMN21" style="stroke:#00008B;stroke-width:1.0;stroke-dasharray:7.0,7.0;"/></g><!--reverse link restApiDto to api_lib--><g id="link_restApiDto_api_lib"><path d="M840,540.45 C840,560.25 840,582.43 840,602.22 " fill="none" id="restApiDto-backto-api_lib" style="stroke:#00008B;stroke-width:1.0;"/><polygon fill="#00008B" points="840,534.45,836,543.45,840,539.45,844,543.45,840,534.45" style="stroke:#00008B;stroke-width:1.0;"/></g><!--reverse link api_lib to controller--><g id="link_api_lib_controller"><path d="M840,655.4 C840,677.17 840,703.27 840,725.02 " fill="none" id="api_lib-backto-controller" style="stroke:#00008B;stroke-width:1.0;"/><polygon fill="#00008B" points="840,649.4,836,658.4,840,654.4,844,658.4,840,649.4" style="stroke:#00008B;stroke-width:1.0;"/></g><!--reverse link restClientDto to adapterClient--><g id="link_restClientDto_adapterClient"><path d="M1175,540.45 C1175,557.62 1175,575.11 1175,593.96 " fill="none" id="restClientDto-backto-adapterClient" style="stroke:#00008B;stroke-width:1.0;"/><polygon fill="#00008B" points="1175,534.45,1171,543.45,1175,539.45,1179,543.45,1175,534.45" style="stroke:#00008B;stroke-width:1.0;"/></g><!--reverse link domain to application--><g id="link_domain_application"><path d="M1411,212.95 C1411,234.73 1411,260.83 1411,282.58 " fill="none" id="domain-backto-application" style="stroke:#00008B;stroke-width:1.0;"/><polygon fill="#00008B" points="1411,206.95,1407,215.95,1411,211.95,1415,215.95,1411,206.95" style="stroke:#00008B;stroke-width:1.0;"/></g><!--reverse link application to infrastructure--><g id="link_application_infrastructure"><path d="M1442,335.71 C1442,348.5225 1442,359.5194 1442,377.9791 C1442,380.2865 1442,382.6168 1442,384.9647 " fill="none" id="application-backto-infrastructure" style="stroke:#00008B;stroke-width:1.0;"/><polygon fill="#00008B" points="1442,329.71,1438,338.71,1442,334.71,1446,338.71,1442,329.71" style="stroke:#00008B;stroke-width:1.0;"/></g><!--SRC=[bLJRYjim47ttL-Xnzo5_i0HoAKkWIyDcePHIYcAF4n5P8yRZNKBnlrUsvBkMKZyarfmvSpcUKNbJnagIXT3A0Dyj22I-ObBsG8g5HGE6dvvEbfIvY2qYhzVYJoBSSvRfxK9OcMo76abyloe6Zo1bGDxwJ71FwYGMzh_Yx91Chl43QAih3s-8yCEZUqctrbwF4Xba-2J7LtMvyW_GBk0YqviqJS53cJy_fDR0lyHS1raA3xai4m9QCDAgA2DWeR0HwG86I39IGtlk3k95leCHHrrTb5clvwJIGgfobKfMQ1hYvdWG6UJAgCOY7kwoq8-1rsSGgygkrc92dlKihOsMx-njwIFNGYgNsc7DoxAl37i7_pftS25rtu5FqPtdhiha94kcAkMAeFMUcaBwQG6IvLcMtbrcqZBGFjXw_p4ZEsF4Ic2nL4wzUmGCOPrYtoe-kaqgW-RDCp2Ty4xtSVoEs0AB57NuRqVvZCnO2CpdJVJ1zblHvdPbgC9gzyKUiEB70U-wVkqIAIW32YPhqopr8oXvrOwpqwyvRFhndObWrM-jpZ556KVaFSVqJT4meLid6iJn0SEuHjaT9_ZCIsY5esRR6zqYAOHu_N9wSzTBXvGzD5Ea_aIPL2jtwCNPjSVuN0qgUA-u4E7hXa3HYPgw3F8imqu5cF3c6Z2ucP4C_r2W-NLtXHZlQIYXt-_PKdRVPjZhXZyjhUVksnVnWXdeP5J3WZ6z9_h1Dwx1NARWzJeOMt403wu_vt5eF6Jgfj-xd83ULTgsFIIha_el]--></g></svg>